<mxfile host="app.diagrams.net" modified="2021-10-27T12:52:37.352Z" agent="5.0 (Macintosh)" etag="lhvv1p8sJZGbllV2C1Tf" version="15.6.0" type="github">
  <diagram id="C5RBs43oDa-KdzZeNtuy" name="Page-1">
    <mxGraphModel dx="946" dy="524" grid="1" gridSize="10" guides="1" tooltips="1" connect="1" arrows="1" fold="1" page="1" pageScale="1" pageWidth="827" pageHeight="1169" math="0" shadow="0">
      <root>
        <mxCell id="WIyWlLk6GJQsqaUBKTNV-0" />
        <mxCell id="WIyWlLk6GJQsqaUBKTNV-1" parent="WIyWlLk6GJQsqaUBKTNV-0" />
        <mxCell id="SVfLN56L1PZOZy_P6-6f-6" value="" style="edgeStyle=orthogonalEdgeStyle;rounded=0;orthogonalLoop=1;jettySize=auto;html=1;" edge="1" parent="WIyWlLk6GJQsqaUBKTNV-1" source="WIyWlLk6GJQsqaUBKTNV-3" target="SVfLN56L1PZOZy_P6-6f-5">
          <mxGeometry relative="1" as="geometry" />
        </mxCell>
        <mxCell id="SVfLN56L1PZOZy_P6-6f-21" style="edgeStyle=orthogonalEdgeStyle;rounded=0;orthogonalLoop=1;jettySize=auto;html=1;exitX=0.5;exitY=1;exitDx=0;exitDy=0;fontSize=13;" edge="1" parent="WIyWlLk6GJQsqaUBKTNV-1" source="WIyWlLk6GJQsqaUBKTNV-3" target="SVfLN56L1PZOZy_P6-6f-20">
          <mxGeometry relative="1" as="geometry" />
        </mxCell>
        <mxCell id="WIyWlLk6GJQsqaUBKTNV-3" value="&lt;div&gt;walle&lt;/div&gt;" style="rounded=1;whiteSpace=wrap;html=1;fontSize=12;glass=0;strokeWidth=1;shadow=0;" parent="WIyWlLk6GJQsqaUBKTNV-1" vertex="1">
          <mxGeometry x="330" y="81" width="120" height="40" as="geometry" />
        </mxCell>
        <mxCell id="SVfLN56L1PZOZy_P6-6f-23" value="" style="edgeStyle=orthogonalEdgeStyle;rounded=0;orthogonalLoop=1;jettySize=auto;html=1;fontSize=13;" edge="1" parent="WIyWlLk6GJQsqaUBKTNV-1" source="SVfLN56L1PZOZy_P6-6f-5" target="SVfLN56L1PZOZy_P6-6f-22">
          <mxGeometry relative="1" as="geometry" />
        </mxCell>
        <mxCell id="SVfLN56L1PZOZy_P6-6f-5" value="&lt;p style=&quot;line-height: 0&quot;&gt;&lt;/p&gt;&lt;div style=&quot;font-size: 13px ; line-height: 0.2&quot;&gt;automatic_process&lt;hr&gt;&lt;/div&gt;【前半段自动处理】&lt;p&gt;&lt;/p&gt;" style="rounded=1;whiteSpace=wrap;html=1;fontSize=12;glass=0;strokeWidth=1;shadow=0;" vertex="1" parent="WIyWlLk6GJQsqaUBKTNV-1">
          <mxGeometry x="240" y="195.5" width="120" height="51" as="geometry" />
        </mxCell>
        <mxCell id="SVfLN56L1PZOZy_P6-6f-20" value="&lt;p style=&quot;line-height: 0&quot;&gt;&lt;/p&gt;&lt;div style=&quot;font-size: 13px ; line-height: 0.2&quot;&gt;automatic_feedback&lt;hr&gt;&lt;/div&gt;【后半段自动处理】&lt;p&gt;&lt;/p&gt;" style="rounded=1;whiteSpace=wrap;html=1;fontSize=12;glass=0;strokeWidth=1;shadow=0;" vertex="1" parent="WIyWlLk6GJQsqaUBKTNV-1">
          <mxGeometry x="440" y="195.5" width="120" height="51" as="geometry" />
        </mxCell>
        <mxCell id="SVfLN56L1PZOZy_P6-6f-29" value="" style="edgeStyle=orthogonalEdgeStyle;rounded=0;orthogonalLoop=1;jettySize=auto;html=1;fontSize=13;entryX=0.5;entryY=0;entryDx=0;entryDy=0;" edge="1" parent="WIyWlLk6GJQsqaUBKTNV-1" source="SVfLN56L1PZOZy_P6-6f-22" target="SVfLN56L1PZOZy_P6-6f-30">
          <mxGeometry relative="1" as="geometry">
            <mxPoint x="205" y="380" as="targetPoint" />
          </mxGeometry>
        </mxCell>
        <mxCell id="SVfLN56L1PZOZy_P6-6f-22" value="&lt;p style=&quot;line-height: 0&quot;&gt;&lt;/p&gt;&lt;div style=&quot;font-size: 13px ; line-height: 0.2&quot;&gt;remote_command&lt;hr&gt;&lt;/div&gt;【check ssh，验证远程ssh能否登录成功】&lt;p&gt;&lt;/p&gt;" style="rounded=1;whiteSpace=wrap;html=1;fontSize=12;glass=0;strokeWidth=1;shadow=0;" vertex="1" parent="WIyWlLk6GJQsqaUBKTNV-1">
          <mxGeometry x="182.5" y="290" width="235" height="51" as="geometry" />
        </mxCell>
        <mxCell id="SVfLN56L1PZOZy_P6-6f-32" value="" style="edgeStyle=orthogonalEdgeStyle;rounded=0;orthogonalLoop=1;jettySize=auto;html=1;fontSize=13;exitX=0.5;exitY=1;exitDx=0;exitDy=0;" edge="1" parent="WIyWlLk6GJQsqaUBKTNV-1" source="SVfLN56L1PZOZy_P6-6f-22" target="SVfLN56L1PZOZy_P6-6f-31">
          <mxGeometry relative="1" as="geometry" />
        </mxCell>
        <mxCell id="SVfLN56L1PZOZy_P6-6f-30" value="&lt;p style=&quot;line-height: 0&quot;&gt;&lt;/p&gt;&lt;div style=&quot;font-size: 13px ; line-height: 0.2&quot;&gt;ssh success&lt;br&gt;&lt;hr&gt;&lt;/div&gt;【登陆成功，连通性正常】&lt;p&gt;&lt;/p&gt;" style="rounded=1;whiteSpace=wrap;html=1;fontSize=12;glass=0;strokeWidth=1;shadow=0;" vertex="1" parent="WIyWlLk6GJQsqaUBKTNV-1">
          <mxGeometry x="150" y="380" width="150" height="50" as="geometry" />
        </mxCell>
        <mxCell id="SVfLN56L1PZOZy_P6-6f-31" value="&lt;p style=&quot;line-height: 0&quot;&gt;&lt;/p&gt;&lt;div style=&quot;font-size: 13px ; line-height: 0.2&quot;&gt;ssh Connection timed out&lt;br&gt;&lt;hr&gt;&lt;/div&gt;【ssh超时，连通性失败--&amp;gt;】&lt;p&gt;&lt;/p&gt;" style="rounded=1;whiteSpace=wrap;html=1;fontSize=12;glass=0;strokeWidth=1;shadow=0;" vertex="1" parent="WIyWlLk6GJQsqaUBKTNV-1">
          <mxGeometry x="350" y="380" width="160" height="50" as="geometry" />
        </mxCell>
      </root>
    </mxGraphModel>
  </diagram>
</mxfile>
